<svg width="32" height="32" viewBox="0 0 32 32" fill="none" xmlns="http://www.w3.org/2000/svg">
<path fill-rule="evenodd" clip-rule="evenodd" d="M16.0013 2.66666C8.6413 2.66666 2.66797 8.63999 2.66797 16C2.66797 23.36 8.6413 29.3333 16.0013 29.3333C23.3613 29.3333 29.3346 23.36 29.3346 16C29.3346 8.63999 23.3613 2.66666 16.0013 2.66666ZM16.0013 17.3333C15.268 17.3333 14.668 16.7333 14.668 16V10.6667C14.668 9.93332 15.268 9.33332 16.0013 9.33332C16.7346 9.33332 17.3346 9.93332 17.3346 10.6667V16C17.3346 16.7333 16.7346 17.3333 16.0013 17.3333ZM14.668 20V22.6667H17.3346V20H14.668Z" fill="#C2812A"/>
</svg>
