<svg width="12" height="12" viewBox="0 0 12 12" fill="none" xmlns="http://www.w3.org/2000/svg">
<path d="M9.90026 3.90758C9.90278 3.8044 9.86955 3.70309 9.80515 3.61771C9.74074 3.53233 9.64834 3.46714 9.54088 3.4312C9.43341 3.39525 9.31619 3.39035 9.20548 3.41715C9.09477 3.44396 8.99614 3.50115 8.9232 3.58078L6.03181 6.61895L3.14143 3.58078C3.09646 3.5257 3.03936 3.47957 2.97367 3.44528C2.90797 3.41099 2.8351 3.38928 2.75966 3.38151C2.68421 3.37374 2.60781 3.38008 2.53521 3.40013C2.46261 3.42017 2.39537 3.4535 2.33774 3.49801C2.28011 3.54252 2.23336 3.59727 2.20032 3.65882C2.16728 3.72037 2.14873 3.7874 2.1458 3.8557C2.14287 3.92401 2.1556 3.99213 2.18327 4.05578C2.21094 4.11944 2.25292 4.17727 2.30657 4.22565L5.61275 7.70408C5.66454 7.7587 5.72882 7.80257 5.80126 7.83264C5.8737 7.86272 5.95254 7.8783 6.03232 7.8783C6.11209 7.8783 6.19094 7.86272 6.26338 7.83264C6.33582 7.80257 6.40016 7.7587 6.45195 7.70408L9.76131 4.22565C9.84802 4.13778 9.89731 4.02507 9.90038 3.90758H9.90026Z" fill="#0E153B"/>
</svg>
