<svg width="24" height="24" viewBox="0 0 24 24" fill="none" xmlns="http://www.w3.org/2000/svg">
<path d="M2.00131 11.996C2.00131 9.53199 1.99826 7.068 2.00262 4.60444C2.0048 3.29046 2.87439 2.25907 4.15916 2.03665C4.32967 2.007 4.5063 2.00525 4.6803 2.00525C6.80239 2.00307 8.92491 2.00918 11.047 2.00002C11.5716 1.99784 12.0025 2.16967 12.3871 2.52204C13.8176 3.83341 15.2519 5.13998 16.695 6.43695C17.1472 6.8434 17.3631 7.32399 17.3566 7.93367C17.3422 9.27818 17.3518 10.6227 17.3522 11.9676C17.3522 12.2834 17.2105 12.5149 16.9235 12.6414C16.6597 12.7579 16.4102 12.7064 16.193 12.5189C16.016 12.3658 15.9545 12.1656 15.9554 11.9345C15.9584 10.7134 15.9532 9.49231 15.9606 8.27121C15.9619 8.09459 15.9218 8.0379 15.7356 8.0392C14.5363 8.04793 13.337 8.04444 12.1377 8.04356C11.3012 8.04313 10.8442 7.58653 10.8433 6.75139C10.8425 5.71215 10.8394 4.67247 10.8468 3.63323C10.8481 3.46228 10.8172 3.39381 10.6248 3.39468C8.62618 3.40166 6.62751 3.3973 4.62884 3.39992C3.87263 3.40123 3.39772 3.88574 3.39728 4.64761C3.39641 9.54638 3.39684 14.4452 3.39728 19.3439C3.39728 20.1289 3.87133 20.6025 4.66198 20.603C7.20579 20.6043 9.74959 20.6038 12.2934 20.6034C12.4172 20.6034 12.5407 20.6025 12.661 20.6365C12.9746 20.7246 13.1918 21.0399 13.163 21.3661C13.1342 21.6937 12.8673 21.964 12.5411 21.9937C12.4835 21.9989 12.4251 21.9989 12.3667 21.9989C9.79363 21.9994 7.22061 22.0015 4.64803 21.9981C3.42912 21.9963 2.47099 21.3112 2.11949 20.203C2.02878 19.9165 2 19.6222 2 19.3221C2.00218 16.8804 2.00131 14.4382 2.00131 11.996ZM12.2711 4.30832C12.2537 4.35717 12.2419 4.37548 12.2419 4.3938C12.2402 5.09767 12.2437 5.80198 12.2367 6.50586C12.2349 6.67245 12.337 6.64847 12.4369 6.64847C13.17 6.64847 13.9031 6.64934 14.6361 6.64672C14.6863 6.64672 14.7535 6.67943 14.7897 6.59657C13.9549 5.83818 13.1202 5.07979 12.2711 4.30832Z" fill="#0E153B"/>
<path d="M8.9823 13.1682C8.00194 13.1682 7.02157 13.17 6.04121 13.1673C5.58548 13.166 5.27541 12.8913 5.26538 12.4896C5.25578 12.0967 5.53402 11.7871 5.92957 11.7775C6.3866 11.7661 6.84451 11.7731 7.30199 11.7731C8.84885 11.7731 10.3953 11.7718 11.9421 11.774C12.3953 11.7744 12.6966 12.0562 12.697 12.4661C12.6975 12.8813 12.3883 13.166 11.923 13.1673C10.943 13.17 9.96267 13.1682 8.9823 13.1682Z" fill="#0E153B"/>
<path d="M7.81272 16.4173C7.21787 16.4173 6.62303 16.4194 6.02774 16.4168C5.57158 16.4146 5.26848 16.1416 5.26325 15.7348C5.25802 15.3152 5.56285 15.0243 6.02469 15.023C7.2218 15.02 8.41891 15.0195 9.61602 15.0235C10.0617 15.0248 10.3731 15.3187 10.374 15.7212C10.3748 16.1242 10.0643 16.4138 9.61907 16.4164C9.01724 16.4199 8.41498 16.4173 7.81272 16.4173Z" fill="#0E153B"/>
<path d="M7.60725 8.51286C8.12273 8.51286 8.6382 8.51111 9.15324 8.5133C9.59589 8.51504 9.90509 8.80505 9.90421 9.21194C9.90334 9.62013 9.59632 9.90665 9.14975 9.90752C8.10441 9.90927 7.05907 9.90927 6.01372 9.90752C5.56933 9.90665 5.26231 9.61708 5.26319 9.20801C5.26406 8.79764 5.56889 8.5146 6.01721 8.51286C6.54708 8.51112 7.07738 8.51286 7.60725 8.51286Z" fill="#0E153B"/>
<path d="M19 19.6026C18.9826 18.6777 18.1688 17.3045 16.0016 17.3045C14.7614 17.3045 14.5917 16.6855 14.5786 16.4543C14.5917 16.1661 14.7527 15.4973 15.9842 15.4973C17.2636 15.4973 17.4116 16.2337 17.4247 16.4614C17.4377 16.8136 17.8076 17.116 18.2297 17.084C18.6649 17.0768 19.0087 16.7816 18.9956 16.4258C18.9739 15.6539 18.3472 14.5617 16.7762 14.2807L16.7893 13.651C16.7937 13.2953 16.4455 13.0036 16.0103 13H16.0016C15.5708 13 15.2183 13.2846 15.214 13.6368L15.2053 14.2771C13.6212 14.551 13.012 15.6574 13.0033 16.4507C13.0207 17.3116 13.8345 18.5923 16.0016 18.5923C17.2245 18.5923 17.3985 19.318 17.4247 19.5884C17.3898 19.7627 17.1897 20.3995 16.0016 20.3995C14.7962 20.3995 14.6047 19.7378 14.5743 19.5422C14.5351 19.1864 14.1608 18.9303 13.717 18.9587C13.2818 18.9908 12.9641 19.3038 13.0033 19.656C13.0685 20.2643 13.6299 21.3458 15.2096 21.6197V22.3561C15.2096 22.7118 15.5621 23 15.9973 23C16.4325 23 16.7893 22.7118 16.7893 22.3561V21.6197C17.3637 21.5303 17.8879 21.2927 18.285 20.9418C18.6821 20.591 18.9312 20.1453 18.9956 19.6702L19 19.6346V19.6026Z" fill="#0E153B"/>
</svg>
