<svg width="24" height="24" viewBox="0 0 24 24" fill="none" xmlns="http://www.w3.org/2000/svg">
<path d="M2.00131 11.996C2.00131 9.53199 1.99826 7.068 2.00262 4.60444C2.0048 3.29046 2.87439 2.25907 4.15916 2.03665C4.32967 2.007 4.5063 2.00525 4.6803 2.00525C6.80239 2.00307 8.92491 2.00918 11.047 2.00002C11.5716 1.99784 12.0025 2.16967 12.3871 2.52204C13.8176 3.83341 15.2519 5.13998 16.695 6.43695C17.1472 6.8434 17.3631 7.32399 17.3566 7.93367C17.3422 9.27818 17.3518 10.6227 17.3522 11.9676C17.3522 12.2834 17.2105 12.5149 16.9235 12.6414C16.6597 12.7579 16.4102 12.7064 16.193 12.5189C16.016 12.3658 15.9545 12.1656 15.9554 11.9345C15.9584 10.7134 15.9532 9.49231 15.9606 8.27121C15.9619 8.09459 15.9218 8.0379 15.7356 8.0392C14.5363 8.04793 13.337 8.04444 12.1377 8.04356C11.3012 8.04313 10.8442 7.58653 10.8433 6.75139C10.8425 5.71215 10.8394 4.67247 10.8468 3.63323C10.8481 3.46228 10.8172 3.39381 10.6248 3.39468C8.62618 3.40166 6.62751 3.3973 4.62884 3.39992C3.87263 3.40123 3.39772 3.88574 3.39728 4.64761C3.39641 9.54638 3.39684 14.4452 3.39728 19.3439C3.39728 20.1289 3.87133 20.6025 4.66198 20.603C7.20579 20.6043 9.74959 20.6038 12.2934 20.6034C12.4172 20.6034 12.5407 20.6025 12.661 20.6365C12.9746 20.7246 13.1918 21.0399 13.163 21.3661C13.1342 21.6937 12.8673 21.964 12.5411 21.9937C12.4835 21.9989 12.4251 21.9989 12.3667 21.9989C9.79363 21.9994 7.22061 22.0015 4.64803 21.9981C3.42912 21.9963 2.47099 21.3112 2.11949 20.203C2.02878 19.9165 2 19.6222 2 19.3221C2.00218 16.8804 2.00131 14.4382 2.00131 11.996ZM12.2711 4.30832C12.2537 4.35717 12.2419 4.37548 12.2419 4.3938C12.2402 5.09767 12.2437 5.80198 12.2367 6.50586C12.2349 6.67245 12.337 6.64847 12.4369 6.64847C13.17 6.64847 13.9031 6.64934 14.6361 6.64672C14.6863 6.64672 14.7535 6.67943 14.7897 6.59657C13.9549 5.83818 13.1202 5.07979 12.2711 4.30832Z" fill="#0E153B"/>
<path d="M8.9823 13.1682C8.00194 13.1682 7.02157 13.17 6.04121 13.1673C5.58548 13.166 5.27541 12.8913 5.26538 12.4896C5.25578 12.0967 5.53402 11.7871 5.92957 11.7775C6.3866 11.7661 6.84451 11.7731 7.30199 11.7731C8.84885 11.7731 10.3953 11.7718 11.9421 11.774C12.3953 11.7744 12.6966 12.0562 12.697 12.4661C12.6975 12.8813 12.3883 13.166 11.923 13.1673C10.943 13.17 9.96267 13.1682 8.9823 13.1682Z" fill="#0E153B"/>
<path d="M7.81272 16.4172C7.21787 16.4172 6.62303 16.4194 6.02774 16.4168C5.57158 16.4146 5.26848 16.1416 5.26325 15.7347C5.25802 15.3152 5.56285 15.0243 6.02469 15.023C7.2218 15.0199 8.41891 15.0195 9.61602 15.0234C10.0617 15.0247 10.3731 15.3186 10.374 15.7212C10.3748 16.1241 10.0643 16.4137 9.61907 16.4163C9.01724 16.4198 8.41498 16.4172 7.81272 16.4172Z" fill="#0E153B"/>
<path d="M7.60725 8.51286C8.12273 8.51286 8.6382 8.51111 9.15324 8.5133C9.59589 8.51504 9.90509 8.80505 9.90421 9.21194C9.90334 9.62013 9.59632 9.90665 9.14975 9.90752C8.10441 9.90927 7.05907 9.90927 6.01372 9.90752C5.56933 9.90665 5.26231 9.61708 5.26319 9.20801C5.26406 8.79764 5.56889 8.5146 6.01721 8.51286C6.54708 8.51112 7.07738 8.51286 7.60725 8.51286Z" fill="#0E153B"/>
<path d="M21 16.4543C20.8752 18.6199 20.1543 20.2857 18.5243 21.4099C17.6291 22.0273 16.6501 22.2202 15.6424 21.698C14.7836 21.2522 14.3492 20.4553 14.1278 19.5111C13.5907 17.222 14.7977 14.4464 16.7934 13.3688C18.4541 12.4722 20.2382 13.2651 20.7626 15.1541C20.8931 15.6252 20.9411 16.1216 21 16.4543ZM15.1459 18.4211C15.1807 18.6586 15.2057 18.9309 15.2679 19.1932C15.2886 19.2805 15.396 19.3871 15.4785 19.403C15.544 19.4159 15.6325 19.3063 15.7079 19.2468C15.7239 19.2339 15.7272 19.2026 15.7362 19.1798C16.0641 18.3452 16.5451 17.6212 17.1462 16.978C17.7752 16.305 18.1921 15.5012 18.4244 14.5902C18.4932 14.3204 18.39 14.1672 18.1304 14.2237C17.8124 14.2927 17.4727 14.3641 17.2009 14.5366C15.8313 15.4055 15.2749 16.7707 15.1459 18.4211ZM19.8415 16.617C19.8118 16.3427 19.8024 16.0844 19.7492 15.8369C19.7261 15.7293 19.6229 15.5825 19.5372 15.5661C19.4623 15.5523 19.3176 15.6772 19.2776 15.7744C18.9313 16.61 18.4545 17.3459 17.8468 17.9956C17.2296 18.6561 16.8169 19.4466 16.5861 20.3402C16.5027 20.6626 16.5988 20.8069 16.9083 20.7364C17.24 20.6611 17.5924 20.5678 17.8727 20.3789C19.1739 19.5021 19.7153 18.1696 19.8415 16.617Z" fill="#0E153B"/>
</svg>
