<svg width="24" height="25" viewBox="0 0 24 25" fill="none" xmlns="http://www.w3.org/2000/svg">
<path fill-rule="evenodd" clip-rule="evenodd" d="M9.3 4.85H4.8C4.55147 4.85 4.35 5.05147 4.35 5.3V9.8C4.35 10.0485 4.55147 10.25 4.8 10.25H9.3C9.54853 10.25 9.75 10.0485 9.75 9.8V5.3C9.75 5.05147 9.54853 4.85 9.3 4.85ZM4.8 3.5C3.80589 3.5 3 4.30589 3 5.3V9.8C3 10.7941 3.80589 11.6 4.8 11.6H9.3C10.2941 11.6 11.1 10.7941 11.1 9.8V5.3C11.1 4.30589 10.2941 3.5 9.3 3.5H4.8Z" fill="#0E153B"/>
<path fill-rule="evenodd" clip-rule="evenodd" d="M9.3 14.75H4.8C4.55147 14.75 4.35 14.9515 4.35 15.2V19.7C4.35 19.9486 4.55147 20.15 4.8 20.15H9.3C9.54853 20.15 9.75 19.9486 9.75 19.7V15.2C9.75 14.9515 9.54853 14.75 9.3 14.75ZM4.8 13.4C3.80589 13.4 3 14.2059 3 15.2V19.7C3 20.6941 3.80589 21.5 4.8 21.5H9.3C10.2941 21.5 11.1 20.6941 11.1 19.7V15.2C11.1 14.2059 10.2941 13.4 9.3 13.4H4.8Z" fill="#0E153B"/>
<path fill-rule="evenodd" clip-rule="evenodd" d="M19.2004 4.85H14.7004C14.4519 4.85 14.2504 5.05147 14.2504 5.3V9.8C14.2504 10.0485 14.4519 10.25 14.7004 10.25H19.2004C19.4489 10.25 19.6504 10.0485 19.6504 9.8V5.3C19.6504 5.05147 19.4489 4.85 19.2004 4.85ZM14.7004 3.5C13.7063 3.5 12.9004 4.30589 12.9004 5.3V9.8C12.9004 10.7941 13.7063 11.6 14.7004 11.6H19.2004C20.1945 11.6 21.0004 10.7941 21.0004 9.8V5.3C21.0004 4.30589 20.1945 3.5 19.2004 3.5H14.7004Z" fill="#0E153B"/>
<path fill-rule="evenodd" clip-rule="evenodd" d="M16.9504 20.15C18.4416 20.15 19.6504 18.9412 19.6504 17.45C19.6504 15.9589 18.4416 14.75 16.9504 14.75C15.4592 14.75 14.2504 15.9589 14.2504 17.45C14.2504 18.9412 15.4592 20.15 16.9504 20.15ZM16.9504 21.5C19.1871 21.5 21.0004 19.6868 21.0004 17.45C21.0004 15.2133 19.1871 13.4 16.9504 13.4C14.7136 13.4 12.9004 15.2133 12.9004 17.45C12.9004 19.6868 14.7136 21.5 16.9504 21.5Z" fill="#0E153B"/>
</svg>
