<svg width="24" height="24" viewBox="0 0 24 24" fill="none" xmlns="http://www.w3.org/2000/svg">
<path d="M3.5 19.5H6.5V12.5C6.5 11.9477 6.94772 11.5 7.5 11.5H16.5C17.0523 11.5 17.5 11.9477 17.5 12.5V19.5H20.5V8.67703C20.5 8.26813 20.251 7.90042 19.8714 7.74856L12.3714 4.74856C12.133 4.65319 11.867 4.65319 11.6286 4.74856L4.12861 7.74856C3.74895 7.90042 3.5 8.26813 3.5 8.67703V19.5ZM2 21V8.35407C2 7.53626 2.4979 6.80084 3.25722 6.49711L11.2572 3.29711C11.734 3.10638 12.266 3.10638 12.7428 3.29711L20.7428 6.49711C21.5021 6.80084 22 7.53626 22 8.35407V21H16V13H8V21H2ZM9.25 21V19.5H10.75V21H9.25ZM11.25 18V16.5H12.75V18H11.25ZM13.25 21V19.5H14.75V21H13.25Z" fill="#0E153B"/>
</svg>
