<svg width="20" height="20" viewBox="0 0 20 20" fill="none" xmlns="http://www.w3.org/2000/svg">
<g id="attach_file_24px">
<path id="icon/editor/attach_file_24px" d="M13.3307 5.62301V14.4397C13.3307 16.1813 12.0557 17.7313 10.3224 17.898C8.33073 18.0897 6.66406 16.5313 6.66406 14.5813V4.28134C6.66406 3.18967 7.4474 2.19801 8.53073 2.08967C9.78073 1.96467 10.8307 2.93967 10.8307 4.16467V12.9147C10.8307 13.373 10.4557 13.748 9.9974 13.748C9.53906 13.748 9.16406 13.373 9.16406 12.9147V5.62301C9.16406 5.28134 8.88073 4.99801 8.53906 4.99801C8.1974 4.99801 7.91406 5.28134 7.91406 5.62301V12.798C7.91406 13.8897 8.6974 14.8813 9.78073 14.9897C11.0307 15.1147 12.0807 14.1397 12.0807 12.9147V4.30634C12.0807 2.56467 10.8057 1.01467 9.0724 0.848006C7.08906 0.656339 5.41406 2.21467 5.41406 4.16467V14.3897C5.41406 16.7813 7.16406 18.923 9.5474 19.148C12.2891 19.398 14.5807 17.2647 14.5807 14.5813V5.62301C14.5807 5.28134 14.2974 4.99801 13.9557 4.99801C13.6141 4.99801 13.3307 5.28134 13.3307 5.62301Z" fill="#0E153B"/>
</g>
</svg>
