<svg width="16" height="16" viewBox="0 0 16 16" fill="none" xmlns="http://www.w3.org/2000/svg">
<path fill-rule="evenodd" clip-rule="evenodd" d="M8.0013 3.41675C7.66978 3.41675 7.35184 3.54844 7.11742 3.78286C7.07535 3.82494 7.03658 3.8697 7.0013 3.91675H9.00131C8.96602 3.8697 8.92726 3.82494 8.88519 3.78286C8.65077 3.54844 8.33282 3.41675 8.0013 3.41675ZM10.6471 3.91675C10.5202 3.4692 10.2806 3.05699 9.94585 2.7222C9.43012 2.20648 8.73065 1.91675 8.0013 1.91675C7.27196 1.91675 6.57248 2.20648 6.05676 2.7222C5.72198 3.05699 5.48243 3.4692 5.35554 3.91675H2.66797C2.25376 3.91675 1.91797 4.25253 1.91797 4.66675C1.91797 5.08096 2.25376 5.41675 2.66797 5.41675H3.2513V12.0001C3.2513 12.5526 3.4708 13.0825 3.8615 13.4732C4.2522 13.8639 4.7821 14.0834 5.33464 14.0834H10.668C11.2205 14.0834 11.7504 13.8639 12.1411 13.4732C12.5318 13.0825 12.7513 12.5526 12.7513 12.0001V5.41675H13.3346C13.7488 5.41675 14.0846 5.08096 14.0846 4.66675C14.0846 4.25253 13.7488 3.91675 13.3346 3.91675H10.6471ZM11.2513 5.41675H4.7513V12.0001C4.7513 12.1548 4.81276 12.3032 4.92216 12.4126C5.03155 12.522 5.17993 12.5834 5.33464 12.5834H10.668C10.8227 12.5834 10.9711 12.522 11.0804 12.4126C11.1898 12.3032 11.2513 12.1548 11.2513 12.0001V5.41675Z" fill="#737583"/>
</svg>
