<svg width="24" height="24" viewBox="0 0 24 24" fill="none" xmlns="http://www.w3.org/2000/svg">
<path d="M9.30826 6.79579C8.86964 6.52933 8.5335 6.19729 8.28754 5.77507C7.9432 5.18067 7.88171 4.52889 7.976 3.8689C8.06208 3.25401 8.69747 2.87688 9.30006 3.03675C9.99284 3.22122 10.6897 3.39749 11.3743 3.59835C11.8006 3.72543 12.2146 3.72133 12.6451 3.61065C13.4116 3.41388 14.1823 3.23352 14.953 3.04495C15.5761 2.88918 16.1991 3.2991 16.2647 3.93859C16.359 4.88962 16.1582 5.75457 15.4162 6.41455C15.1661 6.64001 14.8628 6.80808 14.5676 7.01305C14.6127 7.03354 14.6742 7.06224 14.7398 7.08683C15.2932 7.3082 15.8548 7.50496 16.2975 7.92719C16.7484 8.35761 17.0518 8.87002 17.1994 9.48081C17.6052 11.1328 18.0192 12.7807 18.4291 14.4286C18.6423 15.2813 18.8555 16.1339 19.0645 16.9907C19.1014 17.1383 19.1752 17.2366 19.2941 17.3309C19.5728 17.5564 19.9008 17.7613 20.0894 18.0524C20.6551 18.9419 20.6797 19.9094 20.2246 20.8481C19.8721 21.5819 19.2162 21.9344 18.4087 21.9959C18.3472 22 18.2857 22 18.2242 22C13.9199 22 9.61571 22 5.31147 22C4.27025 22 3.4135 21.4507 3.15935 20.4956C2.8888 19.4789 2.8847 18.4336 3.77424 17.6794C4.22106 17.3022 4.42192 16.9046 4.45472 16.343C4.48751 15.7937 4.5695 15.2444 4.66788 14.6992C4.75806 14.2073 4.99992 13.7687 5.34836 13.412C5.74599 13.0103 5.95915 12.543 6.03294 11.9855C6.13952 11.2066 6.2707 10.4236 6.39778 9.64068C6.60274 8.34941 7.34471 7.50906 8.57039 7.08683C8.79175 7.00895 9.00901 6.92696 9.22628 6.84908C9.24267 6.84088 9.25907 6.82858 9.30826 6.79579ZM13.4649 7.88619C13.5305 8.00097 13.5633 8.06656 13.6002 8.13215C13.9076 8.66506 14.2151 9.19796 14.5184 9.73087C14.6414 9.94813 14.6496 10.1777 14.5143 10.3909C14.3914 10.5876 14.1987 10.6696 13.9691 10.6532C13.7396 10.6368 13.5838 10.5056 13.469 10.3089C13.0386 9.5546 12.6041 8.80443 12.1737 8.05426C12.1204 7.96408 12.0671 7.878 11.9974 7.76731C11.9195 7.89439 11.8662 7.98868 11.8088 8.08296C11.3866 8.82083 10.9644 9.5587 10.5339 10.2966C10.329 10.6491 9.98054 10.7557 9.669 10.5671C9.36975 10.3868 9.30416 10.0301 9.50503 9.68578C9.87396 9.04629 10.2429 8.4109 10.6118 7.77141C10.6405 7.72222 10.6569 7.66893 10.702 7.57465C9.98054 7.8452 9.30006 8.06656 8.64008 8.34941C8.04158 8.60767 7.69725 9.09958 7.59066 9.74317C7.47588 10.4523 7.34471 11.1574 7.26272 11.8707C7.16024 12.7889 6.87329 13.6047 6.19691 14.2688C5.93046 14.5311 5.82388 14.8837 5.77878 15.2526C5.7173 15.7691 5.65171 16.2815 5.60662 16.8021C5.54923 17.4949 5.27047 18.0565 4.69248 18.4623C4.36863 18.6878 4.20876 19.0116 4.22926 19.4134C4.23336 19.5486 4.22516 19.688 4.22926 19.8233C4.23746 20.2045 4.40143 20.5079 4.73757 20.6759C4.91794 20.7661 5.1434 20.8112 5.34426 20.8112C9.628 20.8194 13.9117 20.8153 18.1955 20.8153C18.257 20.8153 18.3185 20.8153 18.38 20.8112C18.7571 20.7784 19.0604 20.598 19.1998 20.2496C19.3884 19.7864 19.3761 19.2945 19.1711 18.8354C19.0481 18.5607 18.835 18.3967 18.4906 18.4172C18.0602 18.4459 17.6298 18.4254 17.1994 18.4254C16.6747 18.4254 16.1459 18.4295 15.6211 18.4254C15.285 18.4213 15.0472 18.2328 14.9981 17.9417C14.9325 17.5564 15.1989 17.2448 15.6047 17.2407C16.2893 17.2366 16.9698 17.2407 17.6544 17.2366C17.7241 17.2366 17.7979 17.2284 17.8757 17.2243C17.8716 17.1752 17.8716 17.1465 17.8634 17.1219C17.2568 14.6582 16.6501 12.1904 16.0311 9.72677C15.8753 9.10368 15.4736 8.67325 14.8792 8.4314C14.4938 8.27563 14.1044 8.12395 13.7191 7.96818C13.6535 7.94768 13.5879 7.92719 13.4649 7.88619ZM9.16479 4.23784C9.02541 5.17657 9.71819 5.95544 10.6856 5.96363C11.6326 5.97183 12.5836 5.96773 13.5305 5.96363C13.6412 5.96363 13.7478 5.95134 13.8544 5.93494C14.6332 5.80786 15.2235 4.97981 15.0472 4.24604C14.9899 4.25424 14.9284 4.26243 14.871 4.27883C14.3135 4.41821 13.7519 4.53299 13.2067 4.70106C12.4114 4.94701 11.6285 4.97981 10.8414 4.68466C10.7922 4.66416 10.7348 4.65596 10.6856 4.63957C10.1855 4.50839 9.68539 4.37721 9.16479 4.23784Z" fill="#23AF53"/>
</svg>
