<svg width="24" height="24" viewBox="0 0 24 24" fill="none" xmlns="http://www.w3.org/2000/svg">
<path d="M19.0672 9.70452C18.7136 7.81836 17.7355 6.11792 16.3006 4.89469C15.0791 3.8534 13.5913 3.21312 12.0278 3.04469C11.5738 2.99578 11.2024 3.37039 11.2024 3.82702V3.82702C11.2024 4.28292 11.5732 4.64704 12.025 4.70796C13.2162 4.86855 14.3459 5.37202 15.2808 6.16883C16.4288 7.14729 17.2118 8.50725 17.4957 10.016L17.7029 11.1279L18.7824 11.3303C19.8632 11.5322 20.8319 12.1441 21.4982 13.0456C22.1646 13.9472 22.4804 15.0733 22.3836 16.203C22.2869 17.3326 21.7846 18.384 20.9755 19.1509C20.1663 19.9178 19.1086 20.3447 18.0102 20.3478H12.0285C11.5722 20.3478 11.2024 20.7177 11.2024 21.1739V21.1739C11.2024 21.6301 11.5722 22 12.0285 22H18.0102C19.5082 21.9966 20.9508 21.4151 22.0548 20.3698C23.1587 19.3244 23.8442 17.8907 23.9765 16.3502C24.1089 14.8097 23.6785 13.2738 22.77 12.0442C21.8615 10.8145 20.5413 9.98001 19.0672 9.70452ZM4.80101 19.5217C4.80101 19.0655 5.17086 18.6957 5.6271 18.6957H8.77594C9.23217 18.6957 9.60203 19.0655 9.60203 19.5217V19.5217C9.60203 19.978 9.23217 20.3478 8.77594 20.3478H5.6271C5.17086 20.3478 4.80101 19.978 4.80101 19.5217V19.5217ZM1.60034 19.4958C1.60034 19.0539 1.95859 18.6957 2.40051 18.6957V18.6957C2.84243 18.6957 3.20068 19.0539 3.20068 19.4958V19.5477C3.20068 19.9896 2.84243 20.3478 2.40051 20.3478V20.3478C1.95859 20.3478 1.60034 19.9896 1.60034 19.5477V19.4958ZM3.20068 16.2174C3.20068 15.7612 3.57053 15.3913 4.02676 15.3913H8.77594C9.23217 15.3913 9.60203 15.7612 9.60203 16.2174V16.2174C9.60203 16.6736 9.23217 17.0435 8.77594 17.0435H4.02676C3.57053 17.0435 3.20068 16.6736 3.20068 16.2174V16.2174ZM0 16.1915C0 15.7496 0.358248 15.3913 0.800169 15.3913V15.3913C1.24209 15.3913 1.60034 15.7496 1.60034 16.1915V16.2433C1.60034 16.6852 1.24209 17.0435 0.800169 17.0435V17.0435C0.358248 17.0435 0 16.6852 0 16.2433V16.1915ZM4.80101 12.913C4.80101 12.4568 5.17086 12.087 5.6271 12.087H8.77594C9.23217 12.087 9.60203 12.4568 9.60203 12.913V12.913C9.60203 13.3693 9.23217 13.7391 8.77594 13.7391H5.6271C5.17086 13.7391 4.80101 13.3693 4.80101 12.913V12.913ZM1.60034 12.8871C1.60034 12.4452 1.95859 12.087 2.40051 12.087V12.087C2.84243 12.087 3.20068 12.4452 3.20068 12.8871V12.939C3.20068 13.3809 2.84243 13.7391 2.40051 13.7391V13.7391C1.95859 13.7391 1.60034 13.3809 1.60034 12.939V12.8871ZM6.40135 9.6087C6.40135 9.15246 6.7712 8.78261 7.22744 8.78261H8.77594C9.23217 8.78261 9.60203 9.15246 9.60203 9.6087V9.6087C9.60203 10.0649 9.23217 10.4348 8.77594 10.4348H7.22744C6.7712 10.4348 6.40135 10.0649 6.40135 9.6087V9.6087ZM3.20068 9.58278C3.20068 9.14086 3.55892 8.78261 4.00084 8.78261V8.78261C4.44277 8.78261 4.80101 9.14086 4.80101 9.58278V9.63461C4.80101 10.0765 4.44277 10.4348 4.00084 10.4348V10.4348C3.55892 10.4348 3.20068 10.0765 3.20068 9.63461V9.58278ZM8.00169 6.27843C8.00169 5.83651 8.35994 5.47826 8.80186 5.47826V5.47826C9.24378 5.47826 9.60203 5.83651 9.60203 6.27843V6.33026C9.60203 6.77219 9.24378 7.13043 8.80186 7.13043V7.13043C8.35994 7.13043 8.00169 6.77219 8.00169 6.33027V6.27843Z" fill="#23AF53"/>
</svg>
