<svg width="21" height="20" viewBox="0 0 21 20" fill="none" xmlns="http://www.w3.org/2000/svg">
<g id="basket" clip-path="url(#clip0_2025_173567)">
<g id="Group">
<path id="Vector" d="M9.22015 2.73499C9.36928 2.55608 9.55426 2.41041 9.76316 2.30738C9.97205 2.20435 10.2002 2.14625 10.433 2.13683C10.6657 2.12741 10.8978 2.16687 11.1143 2.25268C11.3309 2.33848 11.527 2.46872 11.6901 2.63499L11.7801 2.73499L15.0568 6.66666H17.5443C17.7192 6.66629 17.8922 6.70286 18.0519 6.77399C18.2117 6.84511 18.3547 6.94919 18.4714 7.07939C18.5882 7.20959 18.6761 7.36299 18.7294 7.52954C18.7828 7.69608 18.8003 7.87202 18.781 8.04583L18.7043 8.68416L18.621 9.30083L18.5526 9.76249L18.4735 10.2583L18.3835 10.7792L18.2818 11.3192L18.1685 11.87C18.1085 12.1475 18.0443 12.4258 17.9751 12.7017C17.7907 13.4336 17.5591 14.1529 17.2818 14.855L17.0976 15.305L16.9193 15.7117L16.751 16.0733L16.6726 16.235L16.4651 16.6433C16.1985 17.1517 15.6951 17.4517 15.1626 17.495L15.0293 17.5H5.96265C5.6713 17.5023 5.38481 17.4253 5.13381 17.2774C4.88281 17.1294 4.67675 16.916 4.53765 16.66L4.34431 16.285L4.19431 15.9767C4.1676 15.9199 4.14121 15.8629 4.11515 15.8058L3.94848 15.4317C3.56802 14.5479 3.25924 13.6349 3.02515 12.7017C2.97993 12.5204 2.93659 12.3388 2.89515 12.1567L2.77681 11.6167L2.67098 11.0883L2.57765 10.5775L2.49431 10.0883L2.42181 9.62666L2.36015 9.19916L2.28515 8.62999L2.23015 8.16666C2.22534 8.12417 2.22062 8.08167 2.21598 8.03916C2.19851 7.8754 2.21384 7.7098 2.26107 7.55203C2.30829 7.39426 2.38648 7.24748 2.49105 7.12026C2.59562 6.99303 2.72449 6.88791 2.87013 6.81103C3.01577 6.73415 3.17527 6.68706 3.33931 6.67249L3.45265 6.66666H5.94348L9.22015 2.73499ZM17.0693 8.33333H3.92765L3.97931 8.73666L4.04265 9.19333L4.11931 9.69666L4.20931 10.2367C4.24265 10.4217 4.27681 10.6117 4.31431 10.805L4.43348 11.3942C4.49681 11.6925 4.56681 11.9958 4.64181 12.2975C4.85341 13.1398 5.13207 13.9638 5.47515 14.7617L5.63848 15.1292L5.79015 15.4492L5.92598 15.7183L5.98598 15.8333H15.0085L15.1368 15.5808L15.2843 15.2767L15.446 14.9242C15.7518 14.2367 16.1018 13.3258 16.3585 12.2975C16.4626 11.8808 16.5551 11.4575 16.6376 11.0417L16.7543 10.4267L16.8543 9.83583L16.8985 9.55333L16.9776 9.02249L17.0418 8.54749L17.0693 8.33333ZM8.82181 10.6967L9.23848 13.1967C9.26757 13.4114 9.2119 13.629 9.08327 13.8033C8.95463 13.9777 8.76315 14.095 8.54942 14.1306C8.33569 14.1661 8.11652 14.1171 7.93838 13.9937C7.76023 13.8704 7.63712 13.6826 7.59515 13.47L7.17848 10.97C7.15687 10.8606 7.15745 10.7479 7.18019 10.6387C7.20293 10.5295 7.24736 10.426 7.31085 10.3342C7.37434 10.2425 7.4556 10.1645 7.54981 10.1048C7.64402 10.045 7.74926 10.0048 7.8593 9.98652C7.96933 9.96821 8.08193 9.97219 8.1904 9.99821C8.29887 10.0242 8.40101 10.0718 8.49078 10.138C8.58054 10.2042 8.65609 10.2878 8.71295 10.3837C8.76982 10.4797 8.80684 10.5861 8.82181 10.6967ZM13.0401 9.99999L13.1368 10.0108C13.3385 10.0441 13.5209 10.1504 13.6494 10.3094C13.7778 10.4684 13.8434 10.6691 13.8335 10.8733L13.8226 10.97L13.406 13.47C13.3706 13.6793 13.2568 13.8672 13.0876 13.9953C12.9185 14.1235 12.7068 14.1824 12.4958 14.1598C12.2848 14.1373 12.0903 14.0351 11.952 13.8741C11.8138 13.713 11.7422 13.5053 11.7518 13.2933L11.7626 13.1967L12.1793 10.6967C12.2126 10.4953 12.3186 10.3131 12.4773 10.1847C12.6359 10.0562 12.8362 9.99053 13.0401 9.99999ZM10.5001 3.80166L8.11265 6.66666H12.8876L10.5001 3.80166Z" fill="white"/>
</g>
</g>
<defs>
<clipPath id="clip0_2025_173567">
<rect width="20" height="20" fill="white" transform="translate(0.5)"/>
</clipPath>
</defs>
</svg>
