<svg width="20" height="20" viewBox="0 0 20 20" fill="none" xmlns="http://www.w3.org/2000/svg">
<path d="M4.85095 3.02675L9.99761 8.17342L15.1176 3.05341C15.2307 2.93304 15.3669 2.83674 15.5182 2.7703C15.6694 2.70385 15.8325 2.66863 15.9976 2.66675C16.3512 2.66675 16.6904 2.80722 16.9404 3.05727C17.1905 3.30732 17.3309 3.64646 17.3309 4.00008C17.3341 4.16355 17.3037 4.32593 17.2418 4.47726C17.1799 4.62858 17.0877 4.76566 16.9709 4.88008L11.7843 10.0001L16.9709 15.1867C17.1907 15.4017 17.3196 15.6929 17.3309 16.0001C17.3309 16.3537 17.1905 16.6928 16.9404 16.9429C16.6904 17.1929 16.3512 17.3334 15.9976 17.3334C15.8277 17.3405 15.6581 17.3121 15.4998 17.2501C15.3414 17.1882 15.1976 17.0939 15.0776 16.9734L9.99761 11.8267L4.86428 16.9601C4.75162 17.0764 4.61703 17.1693 4.46828 17.2334C4.31953 17.2975 4.15957 17.3315 3.99761 17.3334C3.64399 17.3334 3.30485 17.1929 3.0548 16.9429C2.80476 16.6928 2.66428 16.3537 2.66428 16.0001C2.66117 15.8366 2.6915 15.6742 2.75341 15.5229C2.81531 15.3716 2.90749 15.2345 3.02428 15.1201L8.21095 10.0001L3.02428 4.81341C2.80453 4.59843 2.67567 4.3073 2.66428 4.00008C2.66428 3.64646 2.80476 3.30732 3.0548 3.05727C3.30485 2.80722 3.64399 2.66675 3.99761 2.66675C4.31761 2.67075 4.62428 2.80008 4.85095 3.02675Z" fill="#EA1F4B"/>
</svg>
