<svg width="24" height="24" viewBox="0 0 24 24" fill="none" xmlns="http://www.w3.org/2000/svg">
<path fill-rule="evenodd" clip-rule="evenodd" d="M8.28486 2.39723C9.91749 2.04079 13.0965 1.64701 16.1237 2.31961C16.4245 2.10239 16.7945 1.90549 17.2152 1.79272C17.942 1.59789 18.8109 1.66333 19.6122 2.27528C20.503 2.95554 20.6665 3.91615 20.5523 4.68051C20.4835 5.14052 20.3133 5.57177 20.1111 5.92172C20.6411 7.86451 21.3598 11.584 20.6713 14.7286C20.5498 15.2839 20.0011 15.6355 19.4458 15.5139C18.8905 15.3923 18.5389 14.8436 18.6605 14.2884C19.2945 11.3925 18.5049 7.70187 18.0021 6.03354L17.8363 5.48338L18.2176 5.05353C18.3105 4.94886 18.4732 4.66564 18.5164 4.37623C18.5359 4.24557 18.5249 4.15353 18.505 4.09343C18.4888 4.04459 18.457 3.98313 18.3629 3.9113C18.135 3.73728 17.9435 3.72865 17.7482 3.78099C17.5091 3.8451 17.2748 4.00878 17.1361 4.15428L16.7151 4.596L16.1255 4.43856C13.0728 3.62334 9.58603 4.16684 8.30574 4.50874L7.75123 4.65682L7.3338 4.26291C7.165 4.10361 6.84256 3.79208 6.50041 3.69513C6.15938 3.5985 6.02036 3.76492 5.96931 3.81171C5.78307 3.98242 5.74554 4.1525 5.77245 4.35996C5.80563 4.61578 5.9408 4.86069 6.02496 4.96202L6.38429 5.39468L6.21425 5.93078C5.5761 7.94273 4.49703 12.8629 6.12618 17.4701L6.38862 18.2122L5.74106 18.6599C5.62242 18.7419 5.34718 19.0209 5.21346 19.3543C5.15283 19.5054 5.13575 19.6322 5.14715 19.7363C5.15739 19.8298 5.19539 19.9568 5.3322 20.1179C5.38647 20.1819 5.59249 20.4309 6.03257 20.3033C6.46499 20.178 6.84531 19.8427 6.99164 19.6483L7.39604 19.2136L7.96672 19.403C8.73537 19.658 10.0981 19.9803 11.601 20.0828C13.1176 20.1863 14.6637 20.0578 15.8744 19.5118L16.5412 19.2111L17.0445 19.7419C17.2043 19.9104 17.5108 20.1119 17.8291 20.1889C18.1151 20.258 18.3156 20.2132 18.4853 20.0601C18.5777 19.9767 18.6152 19.9004 18.6336 19.8318C18.6543 19.7544 18.6589 19.6516 18.6334 19.5256C18.6078 19.3985 18.5562 19.2717 18.4932 19.1666C18.4393 19.0766 18.3963 19.0336 18.3863 19.0237C18.3837 19.021 18.3834 19.0207 18.3858 19.0225C17.9247 18.6902 17.8202 18.0469 18.1525 17.5858C18.4848 17.1246 19.1281 17.0201 19.5893 17.3524C20.1031 17.7227 20.5088 18.4122 20.6513 19.1187C20.8058 19.8846 20.6809 20.8516 19.8642 21.5884C19.0675 22.3073 18.1141 22.3756 17.3453 22.1897C16.8877 22.079 16.4639 21.8743 16.1103 21.6316C14.6045 22.1584 12.9309 22.2368 11.4608 22.1365C10.0626 22.0411 8.76936 21.7783 7.84198 21.5166C7.48085 21.7534 7.0187 21.9904 6.52357 22.134C5.76416 22.3542 4.59388 22.4289 3.76296 21.4502C2.93791 20.4783 2.97589 19.4034 3.30292 18.588C3.47041 18.1704 3.7166 17.8036 3.97295 17.5113C2.54001 12.8259 3.44593 8.08851 4.10973 5.78009C3.9345 5.4556 3.78732 5.05838 3.73107 4.62475C3.63485 3.88296 3.80869 2.99974 4.57842 2.29423C5.36947 1.56916 6.35259 1.61163 7.0458 1.80805C7.50564 1.93834 7.93536 2.15798 8.28486 2.39723ZM15.4437 9.43908C15.8535 9.83302 15.8664 10.4846 15.4724 10.8944L12.2516 14.2449C11.7069 14.8115 10.8031 14.8204 10.2474 14.2647L8.97342 12.9907C8.57147 12.5888 8.57147 11.9371 8.97342 11.5352C9.37536 11.1332 10.027 11.1332 10.429 11.5352L11.2306 12.3367L13.9884 9.4678C14.3824 9.05801 15.0339 9.04515 15.4437 9.43908Z" fill="#7A7C8C"/>
</svg>
