<svg width="32" height="32" viewBox="0 0 32 32" fill="none" xmlns="http://www.w3.org/2000/svg">
<path fill-rule="evenodd" clip-rule="evenodd" d="M15.9987 10.6668C17.4654 10.6668 18.6654 9.46683 18.6654 8.00016C18.6654 6.5335 17.4654 5.3335 15.9987 5.3335C14.532 5.3335 13.332 6.5335 13.332 8.00016C13.332 9.46683 14.532 10.6668 15.9987 10.6668ZM15.9987 13.3335C14.532 13.3335 13.332 14.5335 13.332 16.0002C13.332 17.4668 14.532 18.6668 15.9987 18.6668C17.4654 18.6668 18.6654 17.4668 18.6654 16.0002C18.6654 14.5335 17.4654 13.3335 15.9987 13.3335ZM13.332 24.0002C13.332 22.5335 14.532 21.3335 15.9987 21.3335C17.4654 21.3335 18.6654 22.5335 18.6654 24.0002C18.6654 25.4668 17.4654 26.6668 15.9987 26.6668C14.532 26.6668 13.332 25.4668 13.332 24.0002Z" fill="#0E153B"/>
</svg>
