<svg width="16" height="16" viewBox="0 0 16 16" fill="none" xmlns="http://www.w3.org/2000/svg">
<path fill-rule="evenodd" clip-rule="evenodd" d="M13.8067 2.69471C14.0667 2.43474 14.0667 2.01478 13.8067 1.75481L12.2467 0.19497C12.1221 0.070148 11.953 0 11.7767 0C11.6003 0 11.4312 0.070148 11.3067 0.19497L10 1.5015L12.5 4.00124L13.8067 2.69471ZM11.8333 4.66784L9.33333 2.1681L2.76667 8.73409C2.7 8.80075 2.66667 8.88074 2.66667 8.97406V11.0005C2.66667 11.1872 2.81333 11.3338 3 11.3338H5.02667C5.11333 11.3338 5.2 11.3005 5.26 11.2338L11.8333 4.66784ZM14.6667 13.3336H1.33333C0.6 13.3336 0 13.9335 0 14.6668C0 15.4001 0.6 16 1.33333 16H14.6667C15.4 16 16 15.4001 16 14.6668C16 13.9335 15.4 13.3336 14.6667 13.3336Z" fill="#23AF53"/>
</svg>
