<svg width="210" height="194" viewBox="0 0 210 194" fill="none" xmlns="http://www.w3.org/2000/svg">
<g opacity="0.5">
<path d="M178.429 175.738C177.914 178.525 177.085 180.797 174.088 182.039C171.092 183.278 156.212 188.03 154.56 188.545C152.908 189.061 149.393 189.784 143.298 189.269C137.202 188.754 125.834 188.648 116.125 188.754C106.412 188.856 86.4705 188.443 79.0305 188.238C73.1434 188.076 66.3493 187.847 59.2658 187.145H59.2623C57.3952 186.961 55.507 186.742 53.6117 186.485C44.5199 185.246 41.6258 186.383 38.4246 185.349C35.2199 184.315 29.1246 183.698 26.4387 183.077C23.7529 182.456 22.0976 180.183 22.6164 176.983C23.1317 173.779 26.9576 170.371 29.954 169.754C32.9505 169.133 38.7352 164.588 39.4587 163.039C40.1823 161.49 41.1105 159.941 40.4929 157.771C39.8717 155.601 39.0458 153.019 39.7693 150.129C40.4929 147.236 41.0081 147.546 41.0081 144.138C41.0081 140.729 41.9364 137.321 42.3529 135.977C42.7658 134.632 42.6634 125.752 43.387 116.765C44.1105 107.778 44.1105 100.753 44.1105 97.1404V80.4055C44.1105 75.24 44.2129 70.6955 45.8681 67.4953C47.5199 64.2916 54.8576 50.3476 54.8576 50.3476C54.8576 50.3476 50.6223 45.5949 48.2434 44.046C45.8681 42.497 44.1105 39.7061 45.0387 36.1954C45.967 32.6847 51.0317 16.7754 52.2705 16.0521C53.5093 15.3288 55.9905 14.295 57.127 14.295C58.2634 14.295 59.8129 13.7799 60.847 12.5379C61.8811 11.2995 63.7411 10.989 66.2187 10.7808C68.6999 10.5726 73.0376 10.1598 74.6929 9.54235C76.3446 8.92136 78.6176 7.68292 80.9964 8.40623C83.3717 9.12953 86.3681 11.8146 88.1258 12.9507C89.8834 14.0868 91.0199 14.0868 93.4976 12.7425C95.9787 11.3983 98.6646 9.23186 102.692 9.23186C106.719 9.23186 109.821 7.86286 110.958 8.18747C112.094 8.50854 116.125 9.85284 117.985 9.85284C119.845 9.85284 125.94 7.4571 128.111 8.13807C130.281 8.81904 132.865 11.1971 134.619 11.1971C136.373 11.1971 149.499 13.2612 152.802 13.3671C156.109 13.4694 158.072 16.8778 157.246 17.8092C157.246 17.8092 160.599 19.6934 160.966 20.8577C160.966 20.8577 162.618 26.1785 163.652 29.0682C164.686 31.9614 167.372 36.7105 165.822 38.7781C164.273 40.8457 161.587 44.2541 160.038 44.6669C158.488 45.0798 149.703 48.0753 149.912 49.5219C150.085 50.7427 152.026 52.9903 153.063 54.0982C153.081 54.1158 153.099 54.137 153.116 54.1546C153.134 54.1758 153.159 54.2005 153.18 54.2252C153.321 54.3734 153.441 54.4934 153.529 54.5816C154.253 55.3049 158.901 59.3342 161.174 65.1172C163.002 69.7746 163.962 73.4264 164.266 76.616C164.34 77.3852 164.375 78.1297 164.375 78.8565C164.375 82.5754 165.201 89.4945 165.614 93.732C166.027 97.966 164.986 105.305 166.292 111.705C167.58 118.007 167.474 120.692 167.58 127.096C167.682 133.5 169.027 140.729 169.027 143.415C169.027 146.1 165.307 156.018 165.409 157.979C165.512 159.941 166.235 162.319 166.031 167.481C166.031 167.481 173.781 171.511 175.846 171.821C177.911 172.121 178.945 172.947 178.429 175.738Z" fill="#CFD0D8"/>
<path d="M62.5707 15.0148C64.1484 13.4941 72.0754 21.7292 72.386 22.3502C72.6966 22.9712 69.1813 23.0735 66.3931 21.1117C63.6048 19.1464 59.5742 17.9045 62.5707 15.0148Z" fill="#BDBEC9"/>
<path d="M73.0074 21.006C72.3086 19.9228 67.738 14.8843 66.2662 13.8011C64.7944 12.7179 70.4133 11.7088 72.4074 12.485C74.4015 13.2613 77.038 12.5626 78.5097 12.8731C79.9815 13.1836 79.9039 21.006 79.9039 21.006H73.0074Z" fill="#BDBEC9"/>
<path d="M101.912 14.0339C102.689 11.864 107.647 9.69408 110.669 9.69408C113.69 9.69408 115.394 12.1745 117.177 11.864C118.959 11.5535 127.327 8.84376 128.414 9.15425C129.498 9.46474 132.523 12.7955 133.606 12.7955C134.69 12.7955 148.486 13.8011 150.113 14.4997C151.74 15.1983 147.865 14.5844 146.471 16.7508C145.077 18.9172 142.518 24.6507 142.518 24.6507C142.518 24.6507 122.062 20.0039 121.207 19.5381C120.353 19.0724 101.912 14.0339 101.912 14.0339Z" fill="#BDBEC9"/>
<path d="M177.311 179.259C176.662 180.427 175.684 181.379 174.089 182.039C171.092 183.278 156.212 188.03 154.56 188.545C152.909 189.061 149.393 189.784 143.298 189.269C137.203 188.754 125.834 188.648 116.125 188.754C106.412 188.856 86.4709 188.443 79.0309 188.238C73.1439 188.076 66.3497 187.847 59.2662 187.145H59.2627C52.1686 181.217 53.718 182.145 74.1745 179.047C94.6309 175.949 113.852 174.707 119.432 166.342C125.012 157.976 108.159 162.933 104.344 159.835C100.525 156.737 115.712 143.1 116.023 137.215C116.333 131.326 122.224 124.51 116.023 114.284C109.822 104.059 110.443 100.651 114.784 94.1412C119.125 87.6349 114.473 76.1679 109.825 73.07C105.177 69.9721 103.006 80.1972 98.665 79.2693C95.8203 78.6589 97.0521 69.7533 92.0509 64.602C89.4215 61.8957 79.8568 60.7208 78.3639 61.2571C74.0227 62.806 71.4215 73.2923 68.9086 67.0542C65.545 58.7132 63.4592 57.0231 61.6556 57.9122C60.3886 58.5368 59.2627 60.4315 57.9356 62.1886C57.8439 62.3085 57.7521 62.4285 57.6568 62.5485C57.5862 62.6402 57.5156 62.7284 57.4415 62.8166C57.4309 62.8307 57.4203 62.8484 57.4062 62.859C56.9439 63.4235 56.4533 63.9563 55.9239 64.3973C52.2039 63.1589 55.4262 51.6883 55.4262 51.6883C55.4262 51.6883 57.2262 53.4277 60.2086 55.079C60.978 55.5059 61.825 55.9258 62.7427 56.3069C62.9439 56.3915 63.1521 56.4762 63.3603 56.5574H63.3639C63.3674 56.5574 63.3674 56.5574 63.3709 56.5609C64.2356 56.8961 65.1497 57.1925 66.1168 57.4253C69.2897 58.2016 73.7015 58.8967 78.7486 59.2036C80.8803 59.3342 83.1215 59.3977 85.4368 59.3659C88.6168 59.3271 91.9274 59.1119 95.2521 58.6638C106.723 57.1148 120.516 56.8043 126.869 55.2554C129.057 54.7226 133.8 53.523 137.062 53.1384C137.234 53.1208 137.4 53.0996 137.563 53.0855C140.817 52.775 137.294 84.6747 140.199 83.9196C140.782 83.7679 147.512 84.7946 148.567 80.8217C149.069 78.9376 148.79 76.8735 148.133 74.7283C145.391 65.7734 136.024 55.3295 148.889 49.9241C149.213 49.79 149.552 49.6559 149.909 49.5254C150.05 49.8465 150.35 50.531 150.738 51.473C150.851 51.7518 150.978 52.0517 151.105 52.3692V52.3728C152.52 55.8658 154.666 61.6629 155.28 65.9498C156.138 71.955 154.92 75.4022 154.92 79.1211C154.92 82.8399 158.46 86.5835 158.873 90.8175C159.286 95.0515 149.693 105.721 150.999 112.122C151.32 113.695 161.436 105.697 161.199 108.247C160.271 118.24 164.093 133.14 164.171 137.946C164.273 144.349 147.847 153.128 147.847 155.817C147.847 158.502 161.365 149 163.451 153.029C165 156.025 159.872 161.49 154.462 166.663C153.131 167.933 149.259 185.162 149.813 186.806C150.364 188.45 153.738 176.994 156.53 175.649C156.53 175.649 161.902 177.406 163.97 177.717C166.031 178.01 169.751 180.18 177.311 179.259Z" fill="#C7C8D1"/>
<path d="M66.0228 33.7926C65.1334 37.1233 68.0487 44.0883 77.5781 47.1121C87.111 50.1323 96.8734 53.3854 98.7334 54.7827C100.593 56.1764 109.893 56.4092 115.008 53.6218C120.122 50.8345 125.469 50.2911 133.837 49.5149C142.205 48.7386 154.526 48.0435 153.132 45.9512C151.738 43.8589 144.764 44.5575 140.811 41.5338C136.858 38.5135 134.218 33.7714 133.48 34.223C132.743 34.6747 123.838 36.3436 120.895 37.8925C117.951 39.4415 107.719 41.1456 101.91 39.7519C96.0969 38.3583 82.9252 36.6541 85.7134 38.3583C88.5016 40.0624 97.184 44.8645 95.324 45.6407C93.464 46.417 75.344 39.5544 72.9616 37.4303C70.5828 35.3027 66.4958 32.0178 66.0228 33.7926Z" fill="#BDBEC9"/>
<path d="M54.9747 24.6471C53.27 25.2469 52.55 29.7632 53.1677 33.288C53.7888 36.8093 55.4936 41.4597 56.5771 38.9792C57.6606 36.4988 63.9747 32.2648 64.0171 29.735C64.063 27.2016 58.4335 23.4334 54.9747 24.6471Z" fill="#BDBEC9"/>
<path d="M63.0175 62.9155C63.1093 66.6414 57.8081 67.5623 64.8705 76.1644C71.9293 84.7629 76.5775 84.9958 77.9752 91.5021C79.3693 98.0083 71.6857 100.333 69.3669 96.6146C67.0481 92.8958 60.2963 78.9518 58.4399 77.791C56.5834 76.6301 56.8093 86.8552 58.4399 93.1286C60.0705 99.402 62.7105 101.494 63.0175 104.747C63.3246 108.001 58.3728 107.768 57.1305 106.374C55.8881 104.98 56.5128 124.735 57.1305 127.989C57.7481 131.242 59.4387 148.672 64.8705 153.555C70.3022 158.435 77.0434 162.619 76.8105 164.246C76.5775 165.872 65.4175 165.407 61.0022 162.386C56.5834 159.366 50.0752 148.675 47.5199 142.864C44.961 137.053 42.6387 124.735 44.4987 121.482C46.3587 118.229 48.914 115.209 48.914 107.538C48.914 99.8677 45.6599 91.7349 45.6599 81.972C45.6599 72.2091 44.7316 67.5623 48.2187 66.6344C51.7057 65.7064 52.1716 66.8672 54.8046 65.6288C57.4375 64.3868 62.8657 56.7938 63.0175 62.9155Z" fill="#D8D9DF"/>
<path d="M44.8254 156.73C43.5336 156.974 41.5395 161.07 42.2136 163.29C42.8877 165.509 44.903 167.213 44.8254 168.247C44.7477 169.281 42.7325 172.894 43.7666 173.772C44.8007 174.651 49.396 171.345 48.4148 165.819C47.4336 160.294 44.8254 156.73 44.8254 156.73Z" fill="#BDBEC9"/>
<path d="M43.8253 146.195C45.3711 150.824 52.79 161.794 52.79 166.232C52.79 170.674 50.93 178.112 48.7594 178.112C46.5888 178.112 48.0358 172.121 47.4147 167.989C46.7935 163.858 42.7664 158.075 41.8347 155.386C40.9064 152.701 41.1111 150.739 41.8347 147.744C42.5582 144.748 42.2476 144.233 42.7629 141.132C43.2853 138.034 43.2323 144.417 43.8253 146.195Z" fill="#D8D9DF"/>
<path d="M25.3056 181.21C23.9609 180.589 21.8962 175.84 25.3056 174.291C28.715 172.742 30.8856 175.427 33.0562 178.112C35.2267 180.797 41.6326 181.52 40.7009 178.112C39.7726 174.704 37.0832 168.921 38.015 167.266C38.9432 165.615 40.595 167.164 41.2162 172.431C41.8373 177.699 46.6938 178.423 44.7314 181.21C42.7691 183.997 39.5644 183.274 34.8138 182.759C30.0562 182.244 25.3056 181.21 25.3056 181.21Z" fill="#D8D9DF"/>
<path d="M34.9564 169.669C33.1811 170.011 29.6094 171.373 29.6094 171.373C29.6094 171.373 29.6094 172.689 31.4694 173C33.3294 173.31 33.4847 173.388 34.3353 174.393C35.1894 175.402 36.9717 169.281 34.9564 169.669Z" fill="#BDBEC9"/>
<path d="M76.9656 60.3363C76.1115 60.4704 73.7892 60.3575 72.1621 61.8288C70.535 63.3001 69.7586 65.7805 68.5974 62.5274C67.4362 59.2743 64.8033 57.5701 63.3633 56.5469C63.3668 56.5469 63.3668 56.5469 63.3703 56.5504C64.235 56.8856 65.1492 57.182 66.1162 57.4148C69.2892 58.1911 73.7009 58.8862 78.748 59.1931L78.7515 59.1966C79.3021 59.7365 77.8198 60.2058 76.9656 60.3363Z" fill="#C0C1CA"/>
<path d="M62.745 56.2999C62.505 56.7691 62.1168 57.3231 61.6545 57.9053C60.4615 59.4154 58.778 61.1337 57.9345 62.1816C57.8533 62.2839 57.7827 62.3757 57.7156 62.4639C57.698 62.4921 57.6768 62.5168 57.6556 62.545C57.585 62.6403 57.5109 62.732 57.4403 62.8132C57.4297 62.8273 57.4192 62.8449 57.405 62.8555C56.258 64.1892 55.4709 63.7623 55.3827 62.7426C55.3015 61.8147 57.938 57.2913 60.2074 55.072C60.9768 55.499 61.8274 55.9188 62.745 56.2999Z" fill="#C0C1CA"/>
<path d="M133.381 67.4847C131.21 62.6297 129.145 60.047 126.872 59.3237C124.599 58.6004 123.361 62.3192 122.531 66.6591C121.705 70.999 122.842 81.3264 119.672 79.7775C116.503 78.2285 116.951 72.442 118.296 64.775C119.641 57.1044 120.569 57.8771 118.296 58.8862C116.023 59.8918 112.095 60.8762 111.682 64.1257C111.269 67.3789 111.269 71.8246 109.201 69.6547C107.132 67.4847 105.791 62.5274 102.071 62.3192C98.3512 62.1111 98.4536 72.1315 97.7301 70.4803C97.0065 68.829 96.3854 63.2507 94.423 61.5959C92.4607 59.9447 86.3654 60.1493 85.4336 59.3554C88.6136 59.3166 91.9242 59.1014 95.2489 58.6533C106.719 57.1044 120.512 56.7939 126.865 55.2449C129.054 54.7122 133.797 53.5125 137.058 53.1279C137.955 54.0594 138.025 59.8388 138.128 62.6297C138.237 65.4207 135.551 72.3397 133.381 67.4847Z" fill="#C0C1CA"/>
<path d="M149.191 68.208C152.188 74.4073 150.017 76.1609 148.136 74.7142C145.393 65.7593 136.026 55.3154 148.891 49.91C149.675 50.284 150.345 50.8556 150.744 51.459C150.942 51.7589 151.072 52.0658 151.111 52.3552V52.3587C151.277 53.5548 150.949 55.8129 149.502 55.7882C148.055 55.7635 147.126 57.4677 147.126 60.2551C147.123 63.046 146.195 62.0122 149.191 68.208Z" fill="#C0C1CA"/>
<path d="M164.265 76.6089C163.122 77.1558 163.757 76.7818 163.136 76.0585C162.515 75.3352 161.586 71.9269 160.552 69.7569C159.518 67.587 157.245 68.3103 157.143 65.2124C157.044 62.2098 154.436 55.7036 153.176 54.2146C153.317 54.3628 153.437 54.4828 153.525 54.571C154.249 55.2943 158.897 59.3236 161.17 65.1066C163.002 69.7675 163.962 73.4193 164.265 76.6089Z" fill="#C0C1CA"/>
<path d="M142.752 31.8485C143.627 30.6559 146.878 26.1996 152.151 27.0111C157.423 27.8226 156.188 24.7248 155.874 23.1758C155.563 21.6269 159.799 20.5931 160.833 23.1758C161.867 25.7586 162.435 30.1972 159.725 31.3333C157.011 32.4695 157.321 37.4268 158.147 39.9072C158.973 42.3876 158.147 46.2088 154.84 42.3876C151.533 38.5664 152.98 41.3609 148.536 38.5664C144.093 35.7685 141.474 33.5844 142.752 31.8485Z" fill="#BDBEC9"/>
<path d="M151.465 186.478C151.13 184.117 156.114 175.734 158.182 172.326C160.25 168.917 165.209 173.67 165.519 174.7C165.83 175.734 162.421 180.483 160.042 181.827C157.667 183.172 155.288 185.857 154.257 186.474C153.219 187.099 151.698 188.147 151.465 186.478Z" fill="#C0C1CA"/>
<path d="M167.996 170.057C167.562 171.116 169.722 171.839 171.409 173.038C172.394 173.737 175.506 174.718 175.849 175.325C176.777 176.976 177.377 175.36 177.314 173.776C177.25 172.192 174.148 172.742 172.658 172.227C171.165 171.708 167.996 170.057 167.996 170.057Z" fill="#C0C1CA"/>
<path d="M69.209 19.9827C69.4596 19.0618 70.9384 18.1657 73.4902 18.5785C76.0384 18.9913 74.309 17.5482 77.0196 17.5976C79.7337 17.647 78.3113 15.3536 81.1525 15.2089C83.9937 15.0642 87.5831 16.2321 90.0643 15.2089C92.5455 14.1857 95.5666 11.7088 98.2772 11.7088C100.988 11.7088 105.562 11.9417 107.5 11.7088C109.437 11.4759 111.841 12.485 112.225 12.6367C112.614 12.792 116.334 12.2486 121.37 13.7976C126.407 15.3465 134.701 16.3556 136.017 18.1374C137.334 19.9192 142.141 16.2004 143.997 17.2836C145.857 18.3668 143.598 23.4864 142.518 25.7692C141.438 28.052 132.76 32.4731 128.655 33.2846C124.547 34.0961 115.645 32.4095 111.53 32.3919C107.415 32.3743 94.3278 34.6395 91.9243 34.0961C89.5208 33.5527 79.836 33.0164 76.7372 33.2846C73.6384 33.5527 71.676 32.5613 72.1137 31.905C72.5513 31.2452 73.2643 30.4548 73.4902 28.673C73.716 26.8912 71.796 25.9986 71.129 24.8977C70.4584 23.7933 68.7325 21.7363 69.209 19.9827Z" fill="#8E91A4"/>
<path d="M79.6895 24.6471C77.9037 27.9496 91.2554 30.1478 100.538 28.0555C109.82 25.9632 117.726 30.8146 122.374 28.8529C127.022 26.8911 125.745 23.144 119.875 22.9253C114.006 22.7065 108.084 17.3364 102.444 16.8848C96.8037 16.4331 92.8331 18.1373 92.1448 21.0023C91.4566 23.8709 81.4084 21.4681 79.6895 24.6471Z" fill="#8F91A0"/>
<path d="M63.6386 31.231C64.0091 34.9428 69.0633 36.1883 75.8821 34.7946C82.7009 33.4009 90.2962 36.0331 94.0162 36.1883C97.7362 36.3436 108.275 32.9352 113.7 33.7079C119.124 34.4841 125.322 37.7478 128.887 36.1918C132.451 34.6358 134.622 32.3142 138.653 31.2275C142.683 30.1443 148.419 30.2995 149.968 28.2848C151.517 26.2702 159.268 20.2296 153.843 21.0024C148.419 21.7786 140.979 26.7359 140.979 26.7359C140.979 26.7359 130.44 32.4694 128.58 32.6247C126.72 32.7799 118.814 32.0037 113.237 32.0037C107.661 32.0037 99.5997 33.5526 96.1903 33.5526C92.7809 33.5526 83.6362 30.917 81.155 30.917C78.6739 30.917 74.4915 33.7044 73.0974 32.6212C71.7033 31.538 68.6044 29.5656 67.6727 28.7682C66.7444 27.9743 63.3315 23.324 61.6268 22.5513C59.9221 21.7751 62.5056 22.2761 63.7444 22.7418C64.6868 23.0947 69.0033 23.2464 67.9691 21.327C67.6444 20.7236 66.5186 20.5013 65.2409 19.5804C63.9633 18.6595 61.9339 17.4387 59.7633 16.8213C57.5927 16.2003 53.668 17.6081 53.668 19.7815C53.668 21.955 54.3527 23.1511 56.9891 24.6048C59.6221 26.0585 63.328 28.1331 63.6386 31.231Z" fill="#D8D9DF"/>
<path d="M107.001 111.441C107.978 111.804 109.012 111.97 110.008 112.291C112.542 113.11 114.621 114.62 116.251 116.627C117.063 117.629 118.065 117.686 119.057 117.905C122.389 118.638 125.615 119.626 128.502 121.511C129.035 121.86 129.589 122.199 130.002 122.7C131.526 124.545 131.823 126.249 129.098 128.38C125.989 130.818 122.265 131.743 118.524 132.568C117.589 132.777 116.869 133.02 116.202 133.814C113.756 136.718 110.548 138.454 106.796 138.852C102.748 139.283 98.9924 138.341 95.7524 135.684C94.8135 134.915 94.0265 134.047 93.2783 133.115C92.8618 132.593 92.1983 132.734 91.6512 132.611C88.203 131.834 84.8077 130.945 81.7724 129.033C80.5724 128.278 79.6124 127.315 78.9453 126.062C78.9453 125.476 78.9453 124.887 78.9453 124.301C79.7677 122.661 81.1441 121.62 82.7183 120.77C85.5171 119.256 88.5418 118.42 91.6265 117.749C92.3924 117.583 93.0841 117.499 93.6947 116.733C95.2688 114.761 97.27 113.244 99.6912 112.39C100.754 112.016 101.858 111.751 102.942 111.434C104.294 111.441 105.645 111.441 107.001 111.441ZM95.2618 120.071C94.2347 120.029 93.2288 120.198 92.2512 120.441C89.9077 121.024 87.6524 121.821 85.7147 123.356C84.3877 124.404 84.4371 125.984 85.7818 127.043C87.2959 128.232 89.0712 128.867 90.8465 129.516C91.27 129.672 91.3936 129.53 91.1924 129.104C91.0971 128.899 91.0653 128.662 91.0159 128.44C90.7265 127.135 90.5077 125.815 90.5959 124.471C90.6241 124.051 90.6488 123.568 91.1394 123.388C92.5406 122.872 93.9841 122.47 95.4877 122.59C97.6124 122.763 99.5077 123.628 101.336 124.675C104.008 126.203 106.489 128.056 109.394 129.181C111.179 129.873 113.039 130.236 114.906 130.233C116.71 130.229 118.538 129.943 120.243 129.216C121.792 128.557 123.409 127.989 124.602 126.732C125.834 125.434 125.449 124.344 124.355 123.412C122.883 122.156 121.051 121.532 119.262 120.865C119.096 120.801 118.923 120.717 118.782 120.882C118.676 121.006 118.757 121.147 118.796 121.292C119.269 122.936 119.629 124.587 119.325 126.32C119.272 126.63 119.244 126.807 118.895 126.951C115.866 128.232 112.955 127.89 110.096 126.429C107.71 125.208 105.543 123.613 103.182 122.354C100.711 121.027 98.11 120.117 95.2618 120.071Z" fill="#8F91A0"/>
<path d="M140.107 156.893C139.425 157.63 138.73 158.184 137.844 158.452C135.441 159.179 132.727 158.064 132.264 155.252C132.134 154.455 132.098 153.661 132.095 152.86C132.091 151.127 132.112 149.395 132.084 147.663C132.077 147.169 132.232 147.038 132.705 147.063C133.436 147.102 134.17 147.095 134.901 147.063C135.271 147.049 135.345 147.176 135.342 147.521C135.324 149.31 135.349 151.103 135.324 152.892C135.317 153.414 135.416 153.915 135.501 154.419C135.578 154.867 135.84 155.259 136.231 155.471C137.047 155.912 137.94 155.912 138.765 155.563C139.627 155.196 139.997 154.405 140.008 153.498C140.032 151.516 140.025 149.533 140.008 147.55C140.004 147.186 140.082 147.049 140.477 147.063C141.285 147.095 142.097 147.084 142.905 147.066C143.216 147.059 143.343 147.126 143.343 147.472C143.332 151.166 143.463 154.867 143.294 158.558C143.17 161.204 141.804 162.954 138.836 163.403C136.789 163.713 134.908 163.321 133.118 162.34C132.737 162.132 132.508 161.935 132.935 161.501C133.263 161.169 133.503 160.746 133.747 160.343C133.927 160.044 134.061 160.061 134.371 160.209C135.755 160.88 137.181 161.289 138.695 160.583C139.337 160.287 139.676 159.733 139.895 159.116C140.138 158.435 140.22 157.722 140.107 156.893Z" fill="#8F91A0"/>
<path d="M70.0444 148.474C70.6549 148.005 71.1138 147.571 71.6996 147.285C74.2408 146.043 77.7173 147.5 78.6808 150.291C79.3444 152.214 79.3549 154.095 78.4302 155.894C77.5055 157.69 75.9455 158.604 73.9055 158.713C72.4267 158.791 71.1844 158.301 70.1679 157.246C70.1114 157.288 70.0655 157.306 70.062 157.33C69.9244 158.477 69.9244 158.477 68.7526 158.477C68.2514 158.477 67.7502 158.449 67.2526 158.484C66.8255 158.516 66.7055 158.396 66.7091 157.951C66.7302 154.74 66.7196 151.526 66.7196 148.315C66.7196 146.699 66.7302 145.083 66.7126 143.467C66.7091 143.083 66.7796 142.924 67.2067 142.945C67.9938 142.981 68.7879 142.977 69.5749 142.945C69.9702 142.928 70.0549 143.072 70.0514 143.436C70.0338 145.073 70.0444 146.706 70.0444 148.474ZM75.8255 152.775C75.9985 151.194 74.5196 149.66 72.9914 149.617C71.2373 149.568 69.8714 151.085 69.9279 152.814C69.9949 154.892 71.2549 155.961 72.8749 155.958C74.4667 155.958 75.8573 154.899 75.8255 152.775Z" fill="#8F91A0"/>
<path d="M88.2499 153.777C87.0358 153.777 85.8216 153.791 84.6075 153.77C84.1346 153.763 84.0816 153.918 84.2828 154.303C84.7946 155.273 85.6134 155.774 86.6864 155.88C87.9816 156.007 89.1852 155.75 90.2369 154.959C90.4487 154.8 90.5546 154.945 90.6711 155.019C91.1828 155.361 91.5322 155.894 92.0722 156.212C92.2593 156.321 92.1358 156.427 92.0405 156.529C90.8405 157.838 89.3864 158.618 87.5899 158.706C86.0864 158.78 84.6499 158.569 83.3687 157.725C81.8087 156.699 80.9828 155.227 80.8522 153.368C80.7428 151.844 80.9899 150.436 81.9216 149.148C82.7793 147.962 83.944 147.289 85.2958 146.985C87.0216 146.597 88.6911 146.809 90.1875 147.881C91.3311 148.7 91.9593 149.825 92.2911 151.152C92.4711 151.868 92.3969 152.595 92.4252 153.319C92.4393 153.678 92.2981 153.781 91.9522 153.777C90.7169 153.767 89.4852 153.777 88.2499 153.777ZM86.7393 151.544C87.4522 151.544 88.1652 151.526 88.8781 151.551C89.3087 151.565 89.4393 151.466 89.2381 151.036C88.8005 150.097 87.8264 149.476 86.7569 149.54C85.624 149.607 84.7699 150.122 84.2546 151.163C84.0887 151.501 84.244 151.554 84.5405 151.551C85.2746 151.537 86.0087 151.544 86.7393 151.544Z" fill="#8F91A0"/>
<path d="M101.605 157.418C99.9105 159.02 97.0728 159.168 95.2164 157.856C94.4822 157.337 94.0481 156.565 94.0234 155.633C94.0128 155.178 93.9528 154.712 94.0658 154.261C94.4646 152.662 95.6293 151.935 97.1364 151.664C98.5234 151.413 99.914 151.441 101.276 151.837C101.654 151.946 101.654 151.773 101.65 151.505C101.643 150.506 100.606 149.571 99.5046 149.522C98.3399 149.466 97.2317 149.656 96.1658 150.115C95.9081 150.228 95.8128 150.161 95.707 149.924C95.467 149.391 95.1952 148.873 94.934 148.351C94.7964 148.075 94.9764 147.987 95.1775 147.881C96.2611 147.299 97.4258 146.96 98.6364 146.865C100.009 146.756 101.379 146.84 102.649 147.497C104.047 148.22 104.795 149.391 104.838 150.923C104.901 153.269 104.845 155.619 104.862 157.965C104.866 158.364 104.763 158.505 104.35 158.487C103.676 158.456 103.002 158.452 102.328 158.487C101.894 158.509 101.675 158.406 101.76 157.934C101.792 157.754 101.749 157.584 101.605 157.418ZM99.0211 156.346C99.2928 156.346 99.4834 156.353 99.6775 156.346C100.542 156.311 101.312 155.75 101.573 154.963C101.905 153.982 101.841 153.865 100.839 153.661C99.9493 153.481 99.0564 153.428 98.1846 153.742C97.5952 153.954 97.2246 154.536 97.2317 155.146C97.2387 155.788 97.6764 156.067 98.1881 156.282C98.4881 156.409 98.7987 156.307 99.0211 156.346Z" fill="#8F91A0"/>
<path d="M110.637 148.651C111.272 148.033 111.83 147.532 112.539 147.215C114.272 146.442 117.05 146.791 118.137 148.756C118.5 149.416 118.737 150.115 118.747 150.852C118.779 153.22 118.744 155.587 118.772 157.955C118.776 158.413 118.624 158.498 118.215 158.481C117.463 158.452 116.711 158.449 115.959 158.481C115.543 158.498 115.402 158.399 115.409 157.948C115.437 155.986 115.437 154.021 115.412 152.055C115.405 151.431 115.306 150.796 114.837 150.312C114.106 149.561 113.206 149.596 112.299 149.84C111.392 150.087 110.93 150.778 110.775 151.66C110.467 153.375 110.715 155.107 110.633 156.829C110.609 157.359 110.873 158.043 110.517 158.375C110.192 158.678 109.522 158.463 109.006 158.459C108.452 158.452 107.715 158.706 107.397 158.357C107.125 158.057 107.309 157.33 107.309 156.794C107.305 153.731 107.319 150.672 107.295 147.61C107.291 147.137 107.436 147.038 107.87 147.056C108.639 147.091 109.412 147.08 110.182 147.059C110.527 147.049 110.676 147.133 110.64 147.504C110.612 147.85 110.637 148.188 110.637 148.651Z" fill="#8F91A0"/>
<path d="M125.431 158.713C123.808 158.745 122.315 158.357 120.97 157.408C120.31 156.939 120.293 156.963 120.769 156.335C121.051 155.961 121.316 155.573 121.605 155.206C121.754 155.016 121.902 154.917 122.177 155.104C123.204 155.806 124.33 156.198 125.601 156.127C125.837 156.113 126.074 156.071 126.261 155.975C126.536 155.834 126.829 155.654 126.857 155.273C126.889 154.882 126.607 154.733 126.328 154.61C125.604 154.282 124.817 154.137 124.065 153.894C123.042 153.562 122.015 153.202 121.348 152.295C120.021 150.492 120.815 148.022 122.978 147.239C125.343 146.382 127.528 146.911 129.585 148.227C129.864 148.404 129.811 148.615 129.653 148.792C129.271 149.219 128.947 149.681 128.618 150.147C128.449 150.386 128.29 150.464 127.976 150.256C127.189 149.737 126.321 149.406 125.35 149.423C125.138 149.427 124.944 149.473 124.743 149.533C124.418 149.631 124.207 149.808 124.161 150.15C124.115 150.499 124.355 150.686 124.605 150.824C125.287 151.202 126.038 151.417 126.773 151.664C127.588 151.935 128.393 152.232 129.113 152.715C130.676 153.767 130.542 155.855 129.769 157.041C129.13 158.022 128.131 158.343 127.08 158.604C126.536 158.731 125.985 158.699 125.431 158.713Z" fill="#8F91A0"/>
</g>
</svg>
