<svg width="24" height="24" viewBox="0 0 24 24" fill="none" xmlns="http://www.w3.org/2000/svg">
<path d="M20.1023 14.4096H12.0191C11.5871 13.1712 10.4255 12.2784 9.03357 12.2784C7.64157 12.2784 6.48957 13.1712 6.05757 14.4096H4.63676C4.10876 14.4096 3.67676 14.8416 3.67676 15.3696C3.67676 15.8976 4.10876 16.3296 4.63676 16.3296H6.00958C6.39358 17.6544 7.59358 18.624 9.04318 18.624C10.4928 18.624 11.6831 17.6544 12.0671 16.3296H20.1023C20.6303 16.3296 21.0623 15.8976 21.0623 15.3696C21.0623 14.8416 20.6303 14.4096 20.1023 14.4096ZM9.04318 16.704C8.35198 16.704 7.79516 16.1472 7.79516 15.4464C7.79516 14.7456 8.35198 14.1984 9.04318 14.1984C9.73442 14.1984 10.2911 14.7552 10.2911 15.456C10.2911 16.1568 9.73442 16.704 9.04318 16.704Z" fill="#0E153B"/>
<path d="M4.57914 8.65923H11.5007C11.9136 10.0512 13.1807 11.0688 14.7071 11.0688C16.2335 11.0688 17.4911 10.0512 17.9135 8.65923H20.0447C20.5727 8.65923 21.0047 8.22723 21.0047 7.69923C21.0047 7.17123 20.5727 6.73923 20.0447 6.73923H17.9135C17.5007 5.35683 16.2239 4.33923 14.7071 4.33923C13.1903 4.33923 11.9231 5.35683 11.5103 6.73923H4.57914C4.05114 6.73923 3.61914 7.17123 3.61914 7.69923C3.61914 8.22723 4.05114 8.65923 4.57914 8.65923ZM14.7071 6.25923C15.5039 6.25923 16.1471 6.90244 16.1471 7.70884C16.1471 8.51524 15.5039 9.14884 14.7071 9.14884C13.9103 9.14884 13.2671 8.50563 13.2671 7.69923C13.2671 6.89283 13.9103 6.25923 14.7071 6.25923Z" fill="#0E153B"/>
</svg>
