<svg width="18" height="18" viewBox="0 0 18 18" fill="none" xmlns="http://www.w3.org/2000/svg">
<path fill-rule="evenodd" clip-rule="evenodd" d="M2.0325 3.40499C1.74 3.11249 1.74 2.63999 2.0325 2.34749C2.325 2.05499 2.805 2.05499 3.0975 2.34749L15.33 14.595C15.6225 14.8875 15.6225 15.36 15.33 15.6525C15.0375 15.945 14.565 15.945 14.2725 15.6525L12.2325 13.6125C11.2275 14.0025 10.14 14.2275 9 14.2275C5.25 14.2275 2.0475 11.895 0.75 8.60249C1.3275 7.12499 2.295 5.84999 3.51 4.88249L2.0325 3.40499ZM12.75 8.60249C12.75 6.53249 11.07 4.85249 9 4.85249C8.6175 4.85249 8.25 4.92749 7.8975 5.03249L6.27 3.40499C7.1325 3.12749 8.0475 2.97749 9 2.97749C12.75 2.97749 15.9525 5.30999 17.25 8.59499C16.7325 9.91499 15.9075 11.07 14.865 11.9925L12.57 9.69749C12.675 9.35249 12.75 8.98499 12.75 8.60249ZM9 12.3525C6.93 12.3525 5.25 10.6725 5.25 8.60249C5.25 8.02499 5.385 7.47749 5.6175 6.99749L6.795 8.17499C6.7725 8.30999 6.75 8.45249 6.75 8.60249C6.75 9.84749 7.755 10.8525 9 10.8525C9.15 10.8525 9.285 10.83 9.4275 10.8L10.605 11.9775C10.1175 12.2175 9.5775 12.3525 9 12.3525ZM11.2275 8.35499C11.115 7.30499 10.29 6.48749 9.2475 6.37499L11.2275 8.35499Z" fill="#737583"/>
</svg>
