<svg width="16" height="16" viewBox="0 0 16 16" fill="none" xmlns="http://www.w3.org/2000/svg">
<g id="material-symbols:info-rounded">
<path id="Vector" d="M7.9987 11.3335C8.18759 11.3335 8.34603 11.2695 8.47403 11.1415C8.60159 11.0139 8.66536 10.8557 8.66536 10.6668V7.9835C8.66536 7.79461 8.60159 7.63905 8.47403 7.51683C8.34603 7.39461 8.18759 7.3335 7.9987 7.3335C7.80981 7.3335 7.65159 7.39727 7.52403 7.52483C7.39603 7.65283 7.33203 7.81127 7.33203 8.00016V10.6835C7.33203 10.8724 7.39603 11.0279 7.52403 11.1502C7.65159 11.2724 7.80981 11.3335 7.9987 11.3335ZM7.9987 6.00016C8.18759 6.00016 8.34603 5.93616 8.47403 5.80816C8.60159 5.68061 8.66536 5.52238 8.66536 5.3335C8.66536 5.14461 8.60159 4.98616 8.47403 4.85816C8.34603 4.73061 8.18759 4.66683 7.9987 4.66683C7.80981 4.66683 7.65159 4.73061 7.52403 4.85816C7.39603 4.98616 7.33203 5.14461 7.33203 5.3335C7.33203 5.52238 7.39603 5.68061 7.52403 5.80816C7.65159 5.93616 7.80981 6.00016 7.9987 6.00016ZM7.9987 14.6668C7.07648 14.6668 6.20981 14.4917 5.3987 14.1415C4.58759 13.7917 3.88203 13.3168 3.28203 12.7168C2.68203 12.1168 2.20714 11.4113 1.85736 10.6002C1.50714 9.78905 1.33203 8.92238 1.33203 8.00016C1.33203 7.07794 1.50714 6.21127 1.85736 5.40016C2.20714 4.58905 2.68203 3.8835 3.28203 3.2835C3.88203 2.6835 4.58759 2.20838 5.3987 1.85816C6.20981 1.50838 7.07648 1.3335 7.9987 1.3335C8.92092 1.3335 9.78759 1.50838 10.5987 1.85816C11.4098 2.20838 12.1154 2.6835 12.7154 3.2835C13.3154 3.8835 13.7903 4.58905 14.14 5.40016C14.4903 6.21127 14.6654 7.07794 14.6654 8.00016C14.6654 8.92238 14.4903 9.78905 14.14 10.6002C13.7903 11.4113 13.3154 12.1168 12.7154 12.7168C12.1154 13.3168 11.4098 13.7917 10.5987 14.1415C9.78759 14.4917 8.92092 14.6668 7.9987 14.6668Z" fill="#23AF53"/>
</g>
</svg>
