<svg width="24" height="24" viewBox="0 0 24 24" fill="none" xmlns="http://www.w3.org/2000/svg">
<path d="M12.7433 9.78881C13.1347 9.60184 13.5217 9.39313 13.926 9.22791C15.5696 8.5583 17.2523 8.3496 18.9567 8.93224C20.5786 9.48444 21.6091 10.6019 21.9265 12.3107C22.1221 13.3673 21.9134 14.376 21.4656 15.3326C20.5916 17.2066 19.135 18.4762 17.274 19.3154C15.8305 19.9633 14.3217 20.2068 12.7564 19.8894C11.2563 19.585 10.0867 18.811 9.40403 17.3892C9.37795 17.3327 9.27359 17.2675 9.21707 17.2762C7.3387 17.6023 5.80818 16.8892 4.51681 15.6109C2.7515 13.8629 1.93841 11.702 2.00363 9.23225C2.03841 7.89305 2.41669 6.64081 3.28196 5.58858C4.55159 4.04066 6.62127 3.57977 8.45616 4.40155C10.2432 5.2016 11.4215 6.58428 12.2042 8.3322C12.4129 8.79745 12.5607 9.29313 12.7433 9.78881ZM11.1998 17.8849C11.2824 17.9545 11.3563 18.0197 11.4389 18.0762C12.1259 18.5849 12.9173 18.8023 13.7564 18.8371C15.4652 18.9154 16.974 18.3545 18.3306 17.3457C19.422 16.537 20.2394 15.5152 20.6438 14.1977C20.8568 13.4977 20.8829 12.789 20.6786 12.0802C20.6264 11.902 20.5568 11.815 20.3438 11.8672C20.0655 11.9368 19.7742 11.9715 19.4872 12.015C17.8349 12.2498 16.674 13.1194 15.9827 14.6543C15.3609 16.037 14.3173 16.9935 12.8781 17.4805C12.3477 17.6588 11.7868 17.7458 11.1998 17.8849ZM19.8263 10.7671C19.722 10.6758 19.6655 10.6193 19.5959 10.5715C19.0393 10.1497 18.4002 9.9236 17.7175 9.83229C16.2218 9.63228 14.8391 9.98447 13.5434 10.7106C12.1346 11.5063 11.0389 12.5977 10.4563 14.1412C10.1562 14.9369 10.0954 15.7457 10.3389 16.5718C10.3867 16.724 10.4389 16.8022 10.6258 16.7588C10.8911 16.6935 11.165 16.6544 11.4389 16.6196C13.0999 16.4022 14.2913 15.563 14.9956 14.0195C15.7653 12.3281 17.0827 11.2976 18.9089 10.928C19.1959 10.8758 19.4828 10.828 19.8263 10.7671ZM4.70812 5.81033C4.56464 5.94947 4.42985 6.05382 4.3168 6.18426C3.51676 7.07996 3.19935 8.16698 3.17326 9.34096C3.12978 11.2498 3.73851 12.9455 4.97336 14.3978C5.67774 15.2239 6.53431 15.837 7.61263 16.0935C8.08222 16.2022 8.55181 16.2283 9.0214 16.1065C9.0214 15.9283 9.0214 15.7717 9.0214 15.6109C9.02575 15.45 9.02575 15.2935 9.03445 15.1326C9.13445 13.4325 8.51268 12.0889 7.09086 11.1237C5.79079 10.2367 5.01249 9.00615 4.79074 7.4452C4.72117 6.92343 4.73856 6.39297 4.70812 5.81033ZM9.84319 12.6368C9.86058 12.6281 9.87797 12.6237 9.88232 12.615C10.3389 11.8672 10.9085 11.215 11.5694 10.6454C11.6215 10.6019 11.652 10.4888 11.6346 10.4236C11.5563 10.0801 11.4781 9.72793 11.3607 9.39748C10.8519 7.92783 10.0171 6.69298 8.6866 5.84076C7.91265 5.34508 7.07782 5.0929 6.14733 5.20595C5.98211 5.22769 5.90819 5.27986 5.91254 5.46248C5.92123 5.88424 5.89949 6.30166 5.90819 6.72342C5.93863 8.17133 6.54301 9.31921 7.73438 10.1453C8.39094 10.5975 8.96923 11.1237 9.39099 11.8063C9.55622 12.0759 9.69535 12.3585 9.84319 12.6368Z" fill="white"/>
</svg>
