<svg width="24" height="24" viewBox="0 0 24 24" fill="none" xmlns="http://www.w3.org/2000/svg">
<path d="M3.9 19L2.05 12.575C1.98333 12.375 1.99583 12.1792 2.0875 11.9875C2.17917 11.7958 2.325 11.6667 2.525 11.6L4 11.1V5.5C4 5.08333 4.14583 4.73333 4.4375 4.45C4.72917 4.16667 5.08333 4.01667 5.5 4H9.25V2C9.25 1.44772 9.69772 1 10.25 1H13.75C14.3023 1 14.75 1.44772 14.75 2V4H18.5C18.9167 4 19.2708 4.14583 19.5625 4.4375C19.8542 4.72917 20 5.08333 20 5.5V11.125L21.5 11.6C21.6833 11.6667 21.8208 11.7917 21.9125 11.975C22.0042 12.1583 22.0167 12.35 21.95 12.55L20.1 19C19.3 18.9167 18.5542 18.675 17.8625 18.275C17.1708 17.875 16.5583 17.4 16.025 16.85C15.4917 17.45 14.8875 17.9583 14.2125 18.375C13.5375 18.7917 12.8 19 12 19C11.2 19 10.4625 18.7917 9.7875 18.375C9.1125 17.9583 8.50833 17.45 7.975 16.85C7.44167 17.4 6.82917 17.875 6.1375 18.275C5.44583 18.675 4.7 18.9167 3.9 19ZM2 23V21.5H4C4.7 21.5 5.39167 21.3917 6.075 21.175C6.75833 20.9583 7.4 20.65 8 20.25C8.6 20.65 9.24167 20.95 9.925 21.15C10.6083 21.35 11.3 21.45 12 21.45C12.7 21.45 13.3917 21.35 14.075 21.15C14.7583 20.95 15.4 20.65 16 20.25C16.6 20.65 17.2417 20.9583 17.925 21.175C18.6083 21.3917 19.3 21.5 20 21.5H22V23H20C19.3167 23 18.6417 22.9125 17.975 22.7375C17.3083 22.5625 16.65 22.3083 16 21.975C15.35 22.3083 14.6833 22.5625 14 22.7375C13.3167 22.9125 12.65 23 12 23C11.35 23 10.6833 22.9125 10 22.7375C9.31667 22.5625 8.65 22.3083 8 21.975C7.35 22.3083 6.69167 22.5625 6.025 22.7375C5.35833 22.9125 4.68333 23 4 23H2ZM5.5 10.625L12 8.525L18.5 10.65V5.5H5.5V10.625ZM12 17.5C12.85 17.5 13.6083 17.1583 14.275 16.475C14.9417 15.7917 15.5167 15.1583 16 14.575C16.4167 15.075 16.8792 15.5625 17.3875 16.0375C17.8958 16.5125 18.45 16.925 19.05 17.275L20.325 12.8L12 10.1L3.65 12.8L4.95 17.225C5.53333 16.9083 6.0875 16.5125 6.6125 16.0375C7.1375 15.5625 7.6 15.075 8 14.575C8.5 15.175 9.075 15.8125 9.725 16.4875C10.375 17.1625 11.1333 17.5 12 17.5Z" fill="white"/>
</svg>
