<svg width="32" height="32" viewBox="0 0 32 32" fill="none" xmlns="http://www.w3.org/2000/svg">
<path d="M9.99998 5.33301C7.42665 5.33301 5.33331 7.42634 5.33331 9.99967C5.33331 12.573 7.42665 14.6663 9.99998 14.6663C12.5733 14.6663 14.6666 12.573 14.6666 9.99967C14.6666 7.42634 12.5733 5.33301 9.99998 5.33301ZM9.99998 11.9997C8.89331 11.9997 7.99998 11.1063 7.99998 9.99967C7.99998 8.89301 8.89331 7.99967 9.99998 7.99967C11.1066 7.99967 12 8.89301 12 9.99967C12 11.1063 11.1066 11.9997 9.99998 11.9997ZM22 17.333C19.4266 17.333 17.3333 19.4263 17.3333 21.9997C17.3333 24.573 19.4266 26.6663 22 26.6663C24.5733 26.6663 26.6666 24.573 26.6666 21.9997C26.6666 19.4263 24.5733 17.333 22 17.333ZM22 23.9997C20.8933 23.9997 20 23.1063 20 21.9997C20 20.893 20.8933 19.9997 22 19.9997C23.1066 19.9997 24 20.893 24 21.9997C24 23.1063 23.1066 23.9997 22 23.9997ZM25.72 6.27967C26.24 6.79967 26.24 7.63967 25.72 8.15967L8.15998 25.7197C8.03654 25.8431 7.88999 25.941 7.7287 26.0078C7.56742 26.0746 7.39455 26.109 7.21998 26.109C7.04541 26.109 6.87254 26.0746 6.71126 26.0078C6.54997 25.941 6.40342 25.8431 6.27998 25.7197C6.15654 25.5962 6.05862 25.4497 5.99181 25.2884C5.925 25.1271 5.89062 24.9542 5.89062 24.7797C5.89062 24.6051 5.925 24.4322 5.99181 24.271C6.05862 24.1097 6.15654 23.9631 6.27998 23.8397L23.84 6.27967C23.9633 6.15607 24.1098 6.05801 24.2711 5.9911C24.4324 5.92419 24.6054 5.88975 24.78 5.88975C24.9546 5.88975 25.1275 5.92419 25.2888 5.9911C25.4501 6.05801 25.5966 6.15607 25.72 6.27967Z" fill="#0E153B"/>
</svg>
