<svg width="16" height="16" viewBox="0 0 16 16" fill="none" xmlns="http://www.w3.org/2000/svg">
<path fill-rule="evenodd" clip-rule="evenodd" d="M8.02099 2.58337C8.43521 2.58392 8.77055 2.92014 8.77001 3.33435L8.75781 12.6677C8.75727 13.0819 8.42105 13.4172 8.00683 13.4167C7.59262 13.4162 7.25727 13.0799 7.25781 12.6657L7.27001 3.33239C7.27055 2.91818 7.60678 2.58283 8.02099 2.58337Z" fill="white"/>
<path fill-rule="evenodd" clip-rule="evenodd" d="M2.58301 8C2.58301 7.58579 2.91879 7.25 3.33301 7.25H12.6663C13.0806 7.25 13.4163 7.58579 13.4163 8C13.4163 8.41421 13.0806 8.75 12.6663 8.75H3.33301C2.91879 8.75 2.58301 8.41421 2.58301 8Z" fill="white"/>
</svg>
