<svg width="16" height="16" viewBox="0 0 16 16" fill="none" xmlns="http://www.w3.org/2000/svg">
<path fill-rule="evenodd" clip-rule="evenodd" d="M8.02099 2.58334C8.43521 2.58389 8.77055 2.92011 8.77001 3.33432L8.75781 12.6677C8.75727 13.0819 8.42105 13.4172 8.00683 13.4167C7.59262 13.4161 7.25727 13.0799 7.25781 12.6657L7.27001 3.33236C7.27055 2.91815 7.60678 2.5828 8.02099 2.58334Z" fill="#23AF53"/>
<path fill-rule="evenodd" clip-rule="evenodd" d="M2.58203 8C2.58203 7.58579 2.91782 7.25 3.33203 7.25H12.6654C13.0796 7.25 13.4154 7.58579 13.4154 8C13.4154 8.41421 13.0796 8.75 12.6654 8.75H3.33203C2.91782 8.75 2.58203 8.41421 2.58203 8Z" fill="#23AF53"/>
</svg>
