<svg width="10" height="10" viewBox="0 0 10 10" fill="none" xmlns="http://www.w3.org/2000/svg">
<path fill-rule="evenodd" clip-rule="evenodd" d="M5.01312 1.61462C5.272 1.61496 5.4816 1.8251 5.48126 2.08399L5.47363 7.91732C5.47329 8.1762 5.26315 8.3858 5.00427 8.38546C4.74539 8.38512 4.53579 8.17498 4.53613 7.91609L4.54376 2.08276C4.5441 1.82388 4.75424 1.61429 5.01312 1.61462Z" fill="#0E153B"/>
<path fill-rule="evenodd" clip-rule="evenodd" d="M1.61426 5C1.61426 4.74112 1.82412 4.53125 2.08301 4.53125H7.91634C8.17522 4.53125 8.38509 4.74112 8.38509 5C8.38509 5.25888 8.17522 5.46875 7.91634 5.46875H2.08301C1.82412 5.46875 1.61426 5.25888 1.61426 5Z" fill="#0E153B"/>
</svg>
